<svg xmlns="http://www.w3.org/2000/svg" width="24" height="24" viewBox="0 0 24 24">
  <path d="M15.5 1.8 l0.9 2.4 2.4 0.9 -2.4 0.9 -0.9 2.4 -0.9 -2.4 -2.4 -0.9 2.4 -0.9 z" fill="#ffd54f" stroke="#e6b93d" stroke-width="0.8"/>
  <rect x="4.5" y="6" width="15" height="3.6" rx="1.8" fill="#ffffff" stroke="#35bfab" stroke-width="1.2"/>
  <path d="M5.5 9.5 h13 a2 2 0 0 1 2 2 v6 a2.5 2.5 0 0 1 -2.5 2.5 h-12 a2.5 2.5 0 0 1 -2.5 -2.5 v-6 a2 2 0 0 1 2 -2 z" fill="#8ce6d6"/>
  <rect x="7" y="11.5" width="2" height="6.5" rx="1" fill="#ffffff" opacity="0.85"/>
  <circle cx="10.6" cy="17.2" r="1.1" fill="#3f7d72" opacity="0.8"/>
  <circle cx="13.9" cy="15.7" r="1.1" fill="#3f7d72" opacity="0.8"/>
</svg>
